<?xml version="1.0" standalone="no"?><!DOCTYPE svg PUBLIC "-//W3C//DTD SVG 1.1//EN" "http://www.w3.org/Graphics/SVG/1.1/DTD/svg11.dtd"><svg t="1695064606512" class="icon" viewBox="0 0 1024 1024" version="1.1" xmlns="http://www.w3.org/2000/svg" p-id="917" xmlns:xlink="http://www.w3.org/1999/xlink" width="24px" height="24px" ><path d="M988.16 318.4128a30.72 30.72 0 1 0-57.6 21.2992c8.6528 23.4496-0.768 54.6304-25.344 88.9856a396.9536 396.9536 0 0 0-52.8384-130.2528c2.8672 0.7168 5.7344 1.4336 8.4992 2.2016a30.72 30.72 0 1 0 16.4352-59.1872 389.7856 389.7856 0 0 0-80.4352-12.544A397.824 397.824 0 0 0 118.2208 482.7648C45.4656 554.9056 18.8928 624.64 43.3664 679.6288c26.4192 59.2896 90.7264 87.9616 174.08 94.3104a397.824 397.824 0 0 0 696.0128-260.1472c68.9664-69.6832 95.488-138.5472 74.7008-195.3792z m-472.8832-144.7936a337.1008 337.1008 0 0 1 335.8208 313.9584c-63.1296 57.088-159.5904 116.0704-278.784 160.1024-117.2992 43.52-230.7584 66.8672-319.5392 66.1504h-5.632a336.4864 336.4864 0 0 1 268.1344-540.2112z m-415.7952 481.28c-8.96-20.48-0.6144-49.2544 22.528-82.2784a394.24 394.24 0 0 0 45.1072 130.7136c-34.4064-10.0864-57.7024-26.4704-67.6352-48.6912z m415.7952 192.3584a334.848 334.848 0 0 1-209.92-73.7792c90.0608-7.1168 191.744-32.2048 288.3584-67.8912s183.552-81.92 252.6208-133.888a337.152 337.152 0 0 1-331.0592 275.3024z" fill="#fff" p-id="918"></path><path d="M386.2016 581.12A115.0464 115.0464 0 1 1 501.248 465.92a115.2 115.2 0 0 1-115.0464 115.2z m0-158.4128A43.3664 43.3664 0 1 0 429.568 465.92a43.4176 43.4176 0 0 0-43.3664-43.2128z" fill="#fff" p-id="919"></path></svg>