<?xml version="1.0" standalone="no"?><!DOCTYPE svg PUBLIC "-//W3C//DTD SVG 1.1//EN" "http://www.w3.org/Graphics/SVG/1.1/DTD/svg11.dtd"><svg t="1695136644448" class="icon" viewBox="0 0 1024 1024" version="1.1" xmlns="http://www.w3.org/2000/svg" p-id="1395" xmlns:xlink="http://www.w3.org/1999/xlink" width="24" height="24"><path d="M756.9408 936.96H267.0592A180.224 180.224 0 0 1 87.04 757.0944V419.84a201.5744 201.5744 0 0 1 94.3616-171.264l222.3104-140.5952a203.6224 203.6224 0 0 1 216.576 0l222.3104 140.5952A201.5744 201.5744 0 0 1 936.96 419.84v337.2544A180.224 180.224 0 0 1 756.9408 936.96zM512 138.24a141.312 141.312 0 0 0-75.4688 21.76L214.2208 300.4928A140.4928 140.4928 0 0 0 148.48 419.84v337.2544A118.7328 118.7328 0 0 0 267.0592 875.52h489.8816A118.7328 118.7328 0 0 0 875.52 757.0944V419.84a140.4928 140.4928 0 0 0-65.7408-119.3472l-222.3104-140.544A141.312 141.312 0 0 0 512 138.24z" fill="#fff" p-id="1396"></path><path d="M628.992 837.6832a35.84 35.84 0 0 1-35.84-35.84v-171.4688a81.152 81.152 0 1 0-162.304 0v171.4688a35.84 35.84 0 0 1-71.68 0v-171.4688a152.832 152.832 0 1 1 305.664 0v171.4688a35.84 35.84 0 0 1-35.84 35.84z" fill="#fff" p-id="1397"></path></svg>