<?xml version="1.0" standalone="no"?><!DOCTYPE svg PUBLIC "-//W3C//DTD SVG 1.1//EN" "http://www.w3.org/Graphics/SVG/1.1/DTD/svg11.dtd"><svg t="1695071837703" class="icon" viewBox="0 0 1024 1024" version="1.1" xmlns="http://www.w3.org/2000/svg" p-id="1196" xmlns:xlink="http://www.w3.org/1999/xlink" width="24px" height="24px"><path d="M509.7472 935.424A427.1616 427.1616 0 1 1 936.96 508.2624a427.6736 427.6736 0 0 1-427.2128 427.1616z m0-792.8832A365.7216 365.7216 0 1 0 875.52 508.2624a366.1312 366.1312 0 0 0-365.7728-365.7216z" fill="#ffffff" p-id="1197"></path><path d="M347.8016 724.736A54.528 54.528 0 0 1 296.96 650.5472l90.4192-233.5232a54.4256 54.4256 0 0 1 31.1296-31.1808l233.5232-90.368a54.4768 54.4768 0 0 1 70.5024 70.5024l-90.368 233.5232a54.6816 54.6816 0 0 1-31.1808 31.1808l-233.5232 90.368a54.6304 54.6304 0 0 1-19.6608 3.6864z m103.68-274.7904L377.856 640l190.464-73.472 73.3696-190.208z m226.4064-87.6544z m-12.9024-33.3824z" fill="#ffffff" p-id="1198"></path></svg>